<svg xmlns="http://www.w3.org/2000/svg" width="22" height="23" fill="none"><path fill="#F49F1C" d="M21.024 13.222c1.34-2.173.008-4.201-2.18-6.098l2.143-2.806-1.81-1.32L17.09 5.73a93.926 93.926 0 0 0-1.458-1.037l2.1-2.75L15.925.625 13.781 3.43a75.152 75.152 0 0 1-1.163-.826l.007-.009L10.13.772 8.737 2.597s1.354.95 1.314.958c.733.535.665 1.11.47 1.508L8.079 8.259c.05.037.115.087.182.152l-.191-.14-3.421 4.478c-.199.194-.6.443-1.112.07.008.036-1.315-.96-1.315-.96L.304 13.636l2.355 1.718c.438.32.864.642 1.285.953l-2.167 2.839 1.808 1.319 2.144-2.808c.49.372.966.726 1.436 1.068l-2.136 2.794 1.81 1.32 2.164-2.832c3.168 2.054 5.85 2.884 8.174.38 1.872-2.015 1.53-3.773.102-5.424 1.434.261 2.769-.149 3.746-1.74v-.001Zm-7.166 4.22c-1.62 2.122-5.282-.926-6.51-1.82l2.873-3.76c1.227.896 5.326 3.369 3.637 5.58Zm3.21-5.918c-1.474 1.929-4.51-.637-5.532-1.383l2.605-3.41c1.021.746 4.464 2.78 2.927 4.793Z" opacity=".3"/></svg>