<svg xmlns="http://www.w3.org/2000/svg" width="14" height="12" fill="none"><path fill="#F49F1C" d="m10.78 1.668.496-.816a.139.139 0 0 0-.093-.209L9.926.416l-.592.964-.557-.1.475-.795a.139.139 0 0 0-.093-.208L7.902.05l-.576.967L3.387.304a.533.533 0 0 0-.484.174L1.612 2.03l7.346 1.33c.245.043.473.128.684.262.407.257.848.755.548 1.641C9.703 6.752 7.654 9.168 4.273 8.6L6.84 4.378a.287.287 0 0 0-.201-.428l-2.337-.423L.222 9.95s.553.17 1.447.331l-.418.674 1.29.233a.239.239 0 0 0 .257-.119l.358-.58c.197.019.387.027.593.047l-.473.785 1.29.234a.239.239 0 0 0 .257-.12l.543-.885c2.204-.098 4.656-.743 6.413-2.707 3.53-3.96.913-5.62-1-6.174Z" opacity=".32"/></svg>