<svg style="display: none;" aria-hidden="true" xmlns="http://www.w3.org/2000/svg" xmlns:xlink="http://www.w3.org/1999/xlink"><symbol viewBox="0 0 24 24" fill="none" id="f-arrow" xmlns="http://www.w3.org/2000/svg">
<path d="M18 9L12 15L6 9" stroke="white" stroke-width="2"/>
</symbol><symbol viewBox="0 0 28 20" fill="none" id="flag" xmlns="http://www.w3.org/2000/svg">
<rect width="28" height="20" rx="2" fill="white"/>
<mask id="bmask0_303_4962" style="mask-type:luminance" maskUnits="userSpaceOnUse" x="0" y="0" width="28" height="20">
<rect width="28" height="20" rx="2" fill="white"/>
</mask>
<g mask="url(#bmask0_303_4962)">
<rect width="28" height="20" fill="#0A17A7"/>
<path fill-rule="evenodd" clip-rule="evenodd" d="M-1.2825 -1.91644L10.6666 6.14335V-1.33333H17.3333V6.14335L29.2824 -1.91644L30.7736 0.294324L21.3262 6.66667H28V13.3333H21.3262L30.7736 19.7057L29.2824 21.9165L17.3333 13.8567V21.3333H10.6666V13.8567L-1.2825 21.9165L-2.77368 19.7057L6.67371 13.3333H-3.14713e-05V6.66667H6.67371L-2.77368 0.294324L-1.2825 -1.91644Z" fill="white"/>
<path d="M18.668 6.33219L31.3333 -2" stroke="#DB1F35" stroke-width="0.666667" stroke-linecap="round"/>
<path d="M20.0127 13.6975L31.3665 21.3503" stroke="#DB1F35" stroke-width="0.666667" stroke-linecap="round"/>
<path d="M8.00562 6.31046L-3.8374 -1.67098" stroke="#DB1F35" stroke-width="0.666667" stroke-linecap="round"/>
<path d="M9.29012 13.6049L-3.8374 22.3105" stroke="#DB1F35" stroke-width="0.666667" stroke-linecap="round"/>
<path fill-rule="evenodd" clip-rule="evenodd" d="M0 12H12V20H16V12H28V8H16V0H12V8H0V12Z" fill="#E6273E"/>
</g>
</symbol><symbol viewBox="0 0 32 32" fill="none" id="s-f" xmlns="http://www.w3.org/2000/svg">
<path d="M17.3334 26.584C20.0231 26.2417 22.4816 24.8882 24.2092 22.7984C25.9367 20.7086 26.8037 18.0394 26.6339 15.3333C26.4641 12.6272 25.2703 10.0873 23.2951 8.22983C21.3199 6.37235 18.7115 5.33668 16.0001 5.33332C13.2854 5.3313 10.672 6.36444 8.69253 8.22223C6.71305 10.08 5.5164 12.6226 5.34641 15.332C5.17641 18.0414 6.04586 20.7137 7.77761 22.8043C9.50935 24.895 11.9731 26.2467 14.6667 26.584V18.6667H12.0001V16H14.6667V13.7947C14.6667 12.012 14.8534 11.3653 15.2001 10.7133C15.5416 10.0682 16.0694 9.54091 16.7147 9.19999C17.2241 8.92666 17.8574 8.76266 18.9641 8.69199C19.4027 8.66399 19.9707 8.69866 20.6681 8.79866V11.332H20.0001C18.7774 11.332 18.2721 11.3893 17.9707 11.5507C17.7909 11.6431 17.6446 11.7895 17.5521 11.9693C17.3921 12.2707 17.3334 12.5693 17.3334 13.7933V16H20.6667L20.0001 18.6667H17.3334V26.584ZM16.0001 29.3333C8.63608 29.3333 2.66675 23.364 2.66675 16C2.66675 8.63599 8.63608 2.66666 16.0001 2.66666C23.3641 2.66666 29.3334 8.63599 29.3334 16C29.3334 23.364 23.3641 29.3333 16.0001 29.3333Z" fill="white"/>
</symbol><symbol viewBox="0 0 32 32" fill="none" id="s-lin" xmlns="http://www.w3.org/2000/svg">
<path d="M27 2.5H5C4.33696 2.5 3.70107 2.76339 3.23223 3.23223C2.76339 3.70107 2.5 4.33696 2.5 5V27C2.5 27.663 2.76339 28.2989 3.23223 28.7678C3.70107 29.2366 4.33696 29.5 5 29.5H27C27.663 29.5 28.2989 29.2366 28.7678 28.7678C29.2366 28.2989 29.5 27.663 29.5 27V5C29.5 4.33696 29.2366 3.70107 28.7678 3.23223C28.2989 2.76339 27.663 2.5 27 2.5ZM26.5 26.5H5.5V5.5H26.5V26.5ZM14 22V15.5C14.0003 15.1883 14.0977 14.8844 14.2787 14.6306C14.4596 14.3768 14.7152 14.1856 15.0098 14.0838C15.3044 13.9819 15.6235 13.9743 15.9226 14.0622C16.2217 14.15 16.486 14.3288 16.6787 14.5737C17.4406 14.1744 18.2927 13.9784 19.1525 14.0046C20.0122 14.0308 20.8507 14.2784 21.5869 14.7235C22.323 15.1685 22.9318 15.7959 23.3546 16.5451C23.7773 17.2943 23.9996 18.1398 24 19V22C24 22.3978 23.842 22.7794 23.5607 23.0607C23.2794 23.342 22.8978 23.5 22.5 23.5C22.1022 23.5 21.7206 23.342 21.4393 23.0607C21.158 22.7794 21 22.3978 21 22V19C21 18.4696 20.7893 17.9609 20.4142 17.5858C20.0391 17.2107 19.5304 17 19 17C18.4696 17 17.9609 17.2107 17.5858 17.5858C17.2107 17.9609 17 18.4696 17 19V22C17 22.3978 16.842 22.7794 16.5607 23.0607C16.2794 23.342 15.8978 23.5 15.5 23.5C15.1022 23.5 14.7206 23.342 14.4393 23.0607C14.158 22.7794 14 22.3978 14 22ZM12 15.5V22C12 22.3978 11.842 22.7794 11.5607 23.0607C11.2794 23.342 10.8978 23.5 10.5 23.5C10.1022 23.5 9.72064 23.342 9.43934 23.0607C9.15804 22.7794 9 22.3978 9 22V15.5C9 15.1022 9.15804 14.7206 9.43934 14.4393C9.72064 14.158 10.1022 14 10.5 14C10.8978 14 11.2794 14.158 11.5607 14.4393C11.842 14.7206 12 15.1022 12 15.5ZM8.5 10C8.5 9.60444 8.6173 9.21776 8.83706 8.88886C9.05682 8.55996 9.36918 8.30362 9.73463 8.15224C10.1001 8.00087 10.5022 7.96126 10.8902 8.03843C11.2781 8.1156 11.6345 8.30608 11.9142 8.58579C12.1939 8.86549 12.3844 9.22186 12.4616 9.60982C12.5387 9.99778 12.4991 10.3999 12.3478 10.7654C12.1964 11.1308 11.94 11.4432 11.6111 11.6629C11.2822 11.8827 10.8956 12 10.5 12C9.96957 12 9.46086 11.7893 9.08579 11.4142C8.71071 11.0391 8.5 10.5304 8.5 10Z" fill="white"/>
</symbol><symbol viewBox="0 0 32 32" fill="none" id="s-t" xmlns="http://www.w3.org/2000/svg">
<path d="M29.9466 8.00001C28.9199 8.46668 27.8132 8.77334 26.6666 8.92001C27.8399 8.21334 28.7466 7.09334 29.1732 5.74668C28.0666 6.41334 26.8399 6.88001 25.5466 7.14668C24.4932 6.00001 23.0132 5.33334 21.3332 5.33334C18.1999 5.33334 15.6399 7.89334 15.6399 11.0533C15.6399 11.5067 15.6932 11.9467 15.7866 12.36C11.0399 12.12 6.81322 9.84001 3.99989 6.38668C3.50656 7.22668 3.22656 8.21334 3.22656 9.25334C3.22656 11.24 4.22656 13 5.77322 14C4.82656 14 3.94656 13.7333 3.17322 13.3333V13.3733C3.17322 16.1467 5.14656 18.4667 7.75989 18.9867C6.92086 19.2163 6.04002 19.2482 5.18656 19.08C5.5487 20.2167 6.25794 21.2112 7.21458 21.9239C8.17122 22.6366 9.32715 23.0316 10.5199 23.0533C8.49806 24.6539 5.99188 25.5191 3.41322 25.5067C2.95989 25.5067 2.50656 25.48 2.05322 25.4267C4.58656 27.0533 7.59989 28 10.8266 28C21.3332 28 27.1066 19.28 27.1066 11.72C27.1066 11.4667 27.1066 11.2267 27.0932 10.9733C28.2132 10.1733 29.1732 9.16001 29.9466 8.00001Z" fill="white"/>
</symbol></svg>