<svg xmlns="http://www.w3.org/2000/svg" width="160" height="36" fill="none"><g clip-path="url(#a)"><path fill="#F49F1C" d="M10.417 7.333a.867.867 0 0 0 .346-.4c.235-.422.507-.824.814-1.2-1.13.304-2.222.729-3.256 1.267.525.119 1.047.235 1.566.337a.867.867 0 0 0 .53-.004Zm9.224-1.674a9.637 9.637 0 0 0-.757.076c-1.608.234-3.267 1.096-3.796 2.588 3.202.117 5.801 2.436 8.085 4.61l3.65 3.483c.322.307.67.685.606 1.119-.05.22-.155.424-.304.597l-1.838 2.517c-.2.267-.413.556-.723.702-.334.157-.723.133-1.093.098-1.701-.133-3.485-.225-5.042.451-2.046.89-3.368 3.15-3.078 5.305.29 2.156 2.185 4.019 4.405 4.304 1.134.144 2.285-.085 3.372-.429a15.97 15.97 0 0 0 7.581-5.152 14.948 14.948 0 0 0-.853-12.536 15.491 15.491 0 0 0-4.253-4.924 16.047 16.047 0 0 0-5.955-2.807l-.007-.002Z"/><path fill="#030E4F" d="M30.71 25.912a15.972 15.972 0 0 1-7.59 5.168c-1.086.344-2.236.573-3.37.43-2.221-.286-4.116-2.149-4.406-4.305-.29-2.156 1.032-4.416 3.078-5.305 1.557-.676 3.341-.59 5.042-.45.37.029.759.058 1.093-.1.31-.145.524-.427.723-.7l1.845-2.517a1.38 1.38 0 0 0 .304-.597c.065-.433-.284-.812-.606-1.119l-3.65-3.484c-2.284-2.174-4.883-4.493-8.085-4.61.53-1.492 2.188-2.354 3.796-2.588 1.608-.235 3.247.008 4.875-.026 1.627-.033 3.37-.414 4.438-1.6 1.068-1.185 1.027-3.356-.412-4.104.503.926-.137 2.134-1.093 2.616-.955.483-2.098.43-3.16.292-1.795-.23-3.584-.656-5.392-.552a9.35 9.35 0 0 0-4.288 1.376 9 9 0 0 0-3.089 3.196.867.867 0 0 1-.346.4.857.857 0 0 1-.53.007c-2.415-.481-4.922-1.22-7.372-1.448-.399 1.067.447 3.019.93 4 .1.199.206.41.182.63a1.17 1.17 0 0 1-.31.567c-3.76 4.652-4.397 11.48-1.543 16.708 2.855 5.228 9.02 8.567 15.1 8.171 6.082-.396 11.732-4.501 13.835-10.056Z"/><path fill="#030E4F" d="M29.207 6.887c-.04.033-.057.042-.066.057-.898 1.796-3.435 2.956-5.543 2.96h-.109c-.15 0-.298-.01-.442-.025-1.207-.156-2.855-.946-2.855-.946l1.358 1.23 1.72 1.556c.754.681.758.69 1.742.414 1.88-.533 3.298-1.582 3.974-3.426a3.912 3.912 0 0 0 .221-1.82Z"/><path fill="#fff" d="m15.355 11.807.853-.147.528.668.992 1.147-1.53.193-.854.147-.527-.668L13.824 12l1.53-.193ZM7.476 30.292A11.639 11.639 0 0 1 3.74 26.59a11.234 11.234 0 0 1-1.676-4.92 11.153 11.153 0 0 1 .727-5.133 11.454 11.454 0 0 1 2.982-4.298 13.18 13.18 0 0 0-2.748 9.346c.315 3.339 1.903 6.444 4.452 8.707Z"/><path fill="#fff" d="M8.503 27.473a8.005 8.005 0 0 1-2.572-2.545 7.67 7.67 0 0 1-.654-6.915 7.877 7.877 0 0 1 2.05-2.957 9.067 9.067 0 0 0-1.888 6.43 9.166 9.166 0 0 0 3.064 5.987Z"/><path fill="#fff" d="M9.275 24.943a4.737 4.737 0 0 1-1.525-1.507 4.539 4.539 0 0 1-.387-4.097 4.662 4.662 0 0 1 1.217-1.751 5.372 5.372 0 0 0-1.119 3.808 5.43 5.43 0 0 0 1.814 3.547Z"/><path fill="#F49F1C" d="M63.636 22.05c-1.812 0-2.396-.605-2.396-2.422v-9.2c0-1.816.584-2.4 2.396-2.4h3.181c1.812 0 2.396.585 2.396 2.4v2.325l-2.738.175v-2.42c0-.267-.102-.352-.363-.352h-1.75c-.282 0-.384.079-.384.352v9.067c0 .266.102.35.384.35h1.75c.261 0 .363-.078.363-.35v-2.52l2.738.176v2.4c0 1.817-.584 2.422-2.396 2.422l-3.181-.002Zm10.488 0c-1.852 0-2.395-.625-2.395-2.422v-9.2c0-1.776.55-2.4 2.395-2.4h3.604c1.832 0 2.375.625 2.375 2.4v9.2c0 1.797-.543 2.423-2.375 2.423h-3.604Zm2.878-2.133c.223 0 .363-.038.363-.35V10.5c0-.312-.137-.352-.363-.352H74.85c-.24 0-.382.04-.382.352v9.067c0 .312.137.35.382.35h2.153Zm5.818 2.055V8.105h2.759v13.867h-2.758Zm5.576 0V8.105h4.027l2.474 11.734V8.105h2.355v13.867h-4.044l-2.456-11.733v11.733h-2.356Z"/><path fill="#fff" d="M38.614 21.972V8.105H42.7l1.65 11.426 1.648-11.426h4.067v13.867h-2.393V10.059L45.74 21.972h-2.78l-1.93-11.913v11.913h-2.415Zm15.868 0v-4.8l-2.749-9.067h2.497l1.596 6.228 1.59-6.23h2.516l-2.738 9.066v4.8l-2.712.003Zm47.885.078c-1.811 0-2.395-.605-2.395-2.422v-9.2c0-1.816.584-2.4 2.395-2.4h3.18c1.811 0 2.395.585 2.395 2.4v2.325l-2.737.175v-2.42c0-.267-.1-.352-.362-.352h-1.752c-.281 0-.382.079-.382.352v9.067c0 .266.101.35.382.35h1.752c.262 0 .362-.078.362-.35v-2.52l2.736.172v2.4c0 1.817-.584 2.422-2.395 2.422l-3.179.002Zm8.194-.078V8.105h2.758v5.82h2.696v-5.82h2.758v13.867h-2.758v-5.956h-2.696v5.956h-2.758Zm16.208 0-.362-2.636h-2.662l-.342 2.636h-2.838l2.133-13.867h4.758l2.155 13.867h-2.842Zm-2.798-4.296h2.214l-1.111-8.223-1.103 8.223Zm7.425 4.296V8.105h4.031L137.9 19.84V8.105h2.354v13.867h-4.046l-2.455-11.733v11.733h-2.357Zm13.969 0c-1.811 0-2.395-.567-2.395-2.344v-9.2c0-1.796.584-2.4 2.395-2.4h3.241c1.786 0 2.376.605 2.376 2.4v1.661l-2.738.175v-1.776c0-.253-.101-.35-.362-.35h-1.787c-.283 0-.383.097-.383.35v9.004c0 .273.1.35.383.35h2.112l-.603 2.134-2.239-.004Zm2.859 0v-5.39h-.885v-1.953h3.643v7.343h-2.758Zm5.456 0V8.105h6.28v2.11h-3.522v9.628H160v2.133l-6.32-.004Zm3.341-5.917-.564-2.11h3.342v2.11h-2.778Z"/><path fill="#F49F1C" d="M38.614 26.55c0-1.397.817-2.266 2.1-2.266 1.049 0 1.846.635 1.946 1.576h-.794a1.093 1.093 0 0 0-.4-.664 1.154 1.154 0 0 0-.752-.247c-.776 0-1.274.62-1.274 1.6 0 .98.495 1.6 1.277 1.6.598 0 1.026-.312 1.151-.841h.795c-.138.933-.88 1.507-1.946 1.507-1.292 0-2.103-.858-2.103-2.264Zm6.746 2.193h-.807V24.36h1.793c.977 0 1.563.526 1.563 1.364 0 .58-.314 1.067-.852 1.251l.986 1.767h-.92l-.887-1.648h-.872l-.003 1.648Zm0-2.25h.912c.513 0 .81-.276.81-.75 0-.475-.317-.747-.825-.747h-.895l-.001 1.497Zm5.686 2.25v-1.727l-1.583-2.655h.896l1.1 1.907h.017l1.093-1.907h.88l-1.592 2.655v1.727h-.81Zm5.909-4.382c.9 0 1.522.592 1.522 1.467 0 .875-.642 1.467-1.556 1.467h-.914v1.448H55.2V24.36h1.755Zm-.948 2.302h.733c.58 0 .916-.303.916-.835s-.33-.828-.908-.828h-.737l-.004 1.663Zm5.449 2.08v-3.719h-1.352v-.667h3.506v.667h-1.35v3.719h-.804Zm7.854-2.19c0 1.395-.824 2.267-2.14 2.267-1.315 0-2.143-.868-2.143-2.267 0-1.398.824-2.266 2.144-2.266 1.319 0 2.14.873 2.14 2.266Zm-3.457 0c0 .975.51 1.6 1.318 1.6s1.316-.62 1.316-1.6c0-.98-.513-1.6-1.316-1.6-.805 0-1.319.623-1.319 1.6Zm5.227-.003c0-1.397.825-2.266 2.102-2.266 1.048 0 1.845.635 1.946 1.576h-.795a1.092 1.092 0 0 0-.4-.664 1.154 1.154 0 0 0-.751-.247c-.777 0-1.274.62-1.274 1.6 0 .98.494 1.6 1.276 1.6.598 0 1.027-.312 1.152-.841h.792c-.138.933-.88 1.507-1.946 1.507-1.29 0-2.102-.858-2.102-2.264Zm6.748.583c0 .598.378 1.006 1.047 1.006.67 0 1.053-.408 1.053-1.006v-2.772h.803v2.836c0 .958-.711 1.619-1.857 1.619s-1.855-.667-1.855-1.619v-2.836h.808l.001 2.772Zm5.789 1.61h-.807V24.36h1.796c.976 0 1.561.526 1.561 1.364 0 .58-.313 1.067-.85 1.251l.985 1.767h-.92l-.889-1.648h-.876v1.648Zm0-2.25h.91c.513 0 .811-.276.811-.75 0-.475-.316-.747-.824-.747h-.897v1.497Zm5.29 2.25H88.1V24.36h1.787c.977 0 1.563.526 1.563 1.364 0 .58-.314 1.067-.853 1.251l.991 1.767h-.92l-.89-1.648h-.87v1.648Zm0-2.25h.912c.512 0 .81-.276.81-.75 0-.475-.316-.747-.824-.747h-.898v1.497Zm7.403 2.25h-2.922V24.36h2.922v.667h-2.112v1.184h2v.623h-2v1.25h2.115l-.002.658Zm1.984 0V24.36h.702l2.24 3.067h.029V24.36h.775v4.382h-.687l-2.244-3.067h-.03v3.067h-.785Zm5.673-2.193c0-1.397.817-2.266 2.099-2.266 1.049 0 1.847.635 1.948 1.576h-.795a1.089 1.089 0 0 0-.401-.664 1.157 1.157 0 0 0-.752-.247c-.775 0-1.272.62-1.272 1.6 0 .98.493 1.6 1.277 1.6.597 0 1.026-.312 1.151-.841h.792c-.138.933-.88 1.507-1.948 1.507-1.286 0-2.099-.858-2.099-2.264Zm7.022 2.193v-1.727l-1.583-2.655h.885l1.099 1.907h.02l1.092-1.907h.88l-1.593 2.655v1.727h-.8Zm9.641 0h-2.923V24.36h2.923v.667h-2.117v1.184h2v.623h-2v1.25h2.117v.658Zm3.194-2.195v-.021l-1.453-2.166h.954l1.045 1.646h.025l1.058-1.646h.903l-1.511 2.184v.02l1.48 2.178h-.931l-1.061-1.61h-.024l-1.076 1.61h-.88l1.471-2.195Zm3.942.002c0-1.397.817-2.266 2.1-2.266 1.049 0 1.846.635 1.946 1.576h-.794a1.097 1.097 0 0 0-.4-.664 1.157 1.157 0 0 0-.752-.247c-.776 0-1.274.62-1.274 1.6 0 .98.495 1.6 1.277 1.6.598 0 1.027-.312 1.152-.841h.791c-.137.933-.879 1.507-1.946 1.507-1.29 0-2.1-.858-2.1-2.264Zm8.944 2.193v-1.9h-2.199v1.9h-.808V24.36h.808v1.823h2.199V24.36h.804v4.382h-.804Zm5.45-1.133h-1.662l-.385 1.133h-.839l1.603-4.382h.911l1.609 4.382h-.85l-.387-1.132Zm-1.474-.603h1.283l-.633-1.874h-.022l-.628 1.874Zm4.472 1.736V24.36h.701l2.24 3.067h.029V24.36h.776v4.382h-.697l-2.244-3.067h-.027v3.067h-.778Zm7.81.073c-1.318 0-2.137-.868-2.137-2.28 0-1.39.816-2.248 2.122-2.248 1.026 0 1.803.59 1.95 1.467h-.825a1.08 1.08 0 0 0-.418-.592 1.141 1.141 0 0 0-.709-.208c-.813 0-1.298.586-1.298 1.573 0 1.008.507 1.624 1.32 1.624.687 0 1.155-.419 1.167-1.032v-.073h-1.09v-.598h1.891v.467c0 1.187-.736 1.9-1.973 1.9Zm6.831-.073h-2.923V24.36h2.923v.667h-2.109v1.184h1.999v.623h-1.999v1.25h2.116l-.007.658Z"/></g><defs><clipPath id="a"><path fill="#fff" d="M0 0h160v36H0z"/></clipPath></defs></svg>